<svg width="86" height="70" viewBox="0 0 86 70" fill="none" xmlns="http://www.w3.org/2000/svg">
<path d="M6.80088 25.7848L6.69807 25.8701L6.60118 25.9622C4.96373 27.5176 4.00163 29.6719 4 31.9655C3.99838 34.2591 4.95745 36.4148 6.59288 37.9726L6.74896 38.1212L6.92012 38.2523L30.3048 56.1551C30.3063 56.1563 30.3077 56.1574 30.3092 56.1585C33.2264 58.4023 37.79 58.8657 41.2327 55.6066L42.4828 54.4232V52.7018V44.0075C54.7407 45.0015 64.1221 51.7664 69.7014 61.4373L69.7028 61.4398C70.2328 62.3569 70.9576 63.312 71.8171 64.1008C72.5603 64.783 73.9662 65.863 75.8516 65.9883C76.9165 66.059 78.054 65.8116 79.0725 65.1292C80.0437 64.4784 80.6614 63.598 81.0515 62.7848C81.7841 61.2573 82 59.372 82 57.4145C82 35.5567 64.9793 19.6327 42.4872 18.3328V9.15417V7.43565L41.2407 6.25269C39.645 4.73839 37.5945 3.85413 35.3276 4.01952C33.2221 4.17313 31.4519 5.19305 30.1056 6.43508L6.80088 25.7848Z" fill="#F9D100" stroke="#131D40" stroke-width="8"/>
</svg>
