<svg width="100" height="100" viewBox="0 0 100 100" fill="none" xmlns="http://www.w3.org/2000/svg">
<path d="M50.5369 82.838L50.5292 82.8381C46.2325 82.8545 41.9747 82.0245 37.9988 80.3954C34.0229 78.7663 30.4068 76.37 27.3569 73.3434C24.3071 70.3167 21.8833 66.7191 20.2239 62.7557C18.5655 58.7948 17.703 54.5463 17.6856 50.2523C17.7241 41.5784 21.2039 33.2744 27.3608 27.1643C33.5196 21.0523 41.8532 17.6358 50.53 17.6657H50.5369C68.7104 17.6657 83.428 32.2835 83.428 50.2519C83.428 68.233 68.7109 82.8381 50.5369 82.838ZM49.9931 2C37.2627 2.00183 25.0544 7.06072 16.054 16.0638C7.05353 25.0668 1.99817 37.2765 2 50.0069C2.00183 62.7373 7.06072 74.9456 16.0638 83.946C25.0668 92.9465 37.2765 98.0018 50.0069 98C62.7373 97.9982 74.9456 92.9393 83.946 83.9362C92.9465 74.9332 98.0018 62.7235 98 49.9931C97.9982 37.2627 92.9393 25.0544 83.9362 16.054C74.9332 7.05353 62.7235 1.99817 49.9931 2Z" fill="#FF2828" stroke="#131D40" stroke-width="4"/>
</svg>
