<svg width="100" height="100" viewBox="0 0 100 100" fill="none" xmlns="http://www.w3.org/2000/svg">
<path d="M50 2C40.5065 2 31.2262 4.81515 23.3326 10.0895C15.4391 15.3638 9.28681 22.8603 5.6538 31.6312C2.0208 40.402 1.07024 50.0532 2.92233 59.3643C4.77442 68.6754 9.34597 77.2282 16.0589 83.9411C22.7718 90.654 31.3246 95.2256 40.6357 97.0777C49.9468 98.9298 59.598 97.9792 68.3688 94.3462C77.1397 90.7132 84.6362 84.5609 89.9105 76.6674C95.1849 68.7738 98 59.4935 98 50C98 37.2696 92.9429 25.0606 83.9411 16.0589C74.9394 7.05713 62.7304 2 50 2V2ZM34.5714 32.8571C36.2667 32.8571 37.9239 33.3598 39.3335 34.3017C40.743 35.2435 41.8417 36.5822 42.4904 38.1484C43.1392 39.7146 43.3089 41.4381 42.9782 43.1008C42.6474 44.7635 41.8311 46.2907 40.6324 47.4895C39.4336 48.6882 37.9063 49.5046 36.2436 49.8353C34.581 50.166 32.8575 49.9963 31.2913 49.3475C29.7251 48.6988 28.3864 47.6002 27.4446 46.1906C26.5027 44.781 26 43.1238 26 41.4286C25.9909 40.3004 26.2063 39.1817 26.6339 38.1376C27.0614 37.0936 27.6924 36.145 28.4902 35.3473C29.2879 34.5495 30.2365 33.9185 31.2805 33.491C32.3246 33.0635 33.4433 32.848 34.5714 32.8571V32.8571ZM50 77.4286C45.1511 77.4337 40.3852 76.1707 36.1751 73.765C31.9651 71.3592 28.4574 67.8944 26 63.7143H74C71.5427 67.8944 68.0349 71.3592 63.8249 73.765C59.6149 76.1707 54.8489 77.4337 50 77.4286V77.4286ZM65.4286 50C63.7333 50 62.0761 49.4973 60.6665 48.5554C59.257 47.6136 58.1584 46.2749 57.5096 44.7087C56.8609 43.1425 56.6911 41.4191 57.0218 39.7564C57.3526 38.0937 58.1689 36.5664 59.3677 35.3676C60.5664 34.1689 62.0937 33.3526 63.7564 33.0218C65.4191 32.6911 67.1425 32.8608 68.7087 33.5096C70.2749 34.1583 71.6136 35.257 72.5555 36.6665C73.4973 38.0761 74 39.7333 74 41.4286C74.0091 42.5567 73.7937 43.6754 73.3662 44.7195C72.9386 45.7635 72.3076 46.7121 71.5099 47.5098C70.7121 48.3076 69.7636 48.9386 68.7195 49.3661C67.6754 49.7937 66.5567 50.0091 65.4286 50Z" fill="#68C8FF" stroke="#131D40" stroke-width="4"/>
</svg>
