<svg width="100" height="100" viewBox="0 0 100 100" fill="none" xmlns="http://www.w3.org/2000/svg">
<path d="M93.6364 52.4034H89.2727C89.2727 36.1511 75.6145 23.0065 58.7273 23.0065H54.3636V17.673C55.6907 16.9356 56.7926 15.875 57.5586 14.5978C58.3246 13.3205 58.7277 11.8717 58.7273 10.397C58.7269 8.92226 58.323 7.47363 57.5564 6.19677C56.7897 4.91991 55.6872 3.85982 54.3598 3.12312C53.0323 2.38641 51.5267 1.99906 49.9944 2C48.4621 2.00095 46.957 2.39016 45.6306 3.1285C44.3041 3.86685 43.203 4.92829 42.438 6.2061C41.6731 7.4839 41.2712 8.93303 41.2727 10.4077C41.2727 13.5154 43.0182 16.2451 45.6364 17.673V23.0065H41.2727C24.3855 23.0065 10.7273 36.1511 10.7273 52.4034H6.36364C3.96364 52.4034 2 54.2932 2 56.603V69.2017C2 71.5115 3.96364 73.4013 6.36364 73.4013H10.7273V77.6009C10.7273 79.8284 11.6468 81.9648 13.2834 83.5399C14.9201 85.1151 17.1399 86 19.4545 86H80.5455C85.3891 86 89.2727 82.2624 89.2727 77.6009V73.4013H93.6364C96.0364 73.4013 98 71.5115 98 69.2017V56.603C98 54.2932 96.0364 52.4034 93.6364 52.4034ZM30.3636 69.2017C27.4704 69.2017 24.6956 68.0956 22.6497 66.1267C20.6039 64.1577 19.4545 61.4873 19.4545 58.7028C19.4545 55.2591 21.2 52.2355 23.8182 50.3037L40.5309 62.3984C39.0909 66.346 35.0327 69.2017 30.3636 69.2017ZM69.6364 69.2017C64.9673 69.2017 60.9091 66.346 59.4691 62.3984L76.1818 50.3037C78.8 52.2355 80.5455 55.2591 80.5455 58.7028C80.5455 61.4873 79.3961 64.1577 77.3503 66.1267C75.3044 68.0956 72.5296 69.2017 69.6364 69.2017Z" fill="#FF2828" stroke="#131D40" stroke-width="4"/>
</svg>
