<svg width="1920" height="1080" viewBox="0 0 1920 1080" fill="none" xmlns="http://www.w3.org/2000/svg">
<g clip-path="url(#clip0)">
<g style="mix-blend-mode:lighten" opacity="0.18">
<path d="M223.133 1090.66L208.239 1067.24L184.843 1082.18L181.516 1076.95L204.936 1062.06L190.005 1038.66L195.227 1035.34L210.121 1058.76L233.511 1043.86L236.814 1049.04L213.425 1063.94L228.325 1087.33L223.133 1090.66Z" fill="#FCFFFC"/>
<path d="M92.551 840.314L39.2173 800.784L-0.228594 854.18L-12.134 845.371L27.3957 792.037L-26 752.591L-17.1905 740.686L36.1432 780.215L75.6 726.893L87.4216 735.64L47.9648 788.963L101.288 828.42L92.551 840.314Z" fill="#FCFFFC"/>
<path d="M1411.78 624.049L1368.77 635.943L1380.73 678.942L1371.13 681.603L1359.24 638.585L1316.24 650.546L1313.58 640.951L1356.6 629.057L1344.68 586.082L1354.21 583.44L1366.12 626.415L1409.1 614.497L1411.78 624.049Z" fill="#FCFFFC"/>
<path d="M1563.95 974.207L1539.45 961.158L1526.44 985.674L1520.97 982.767L1534.02 958.271L1509.51 945.26L1512.41 939.793L1536.91 952.843L1549.93 928.356L1555.36 931.242L1542.34 955.729L1566.82 968.749L1563.95 974.207Z" fill="#FCFFFC"/>
<path d="M409.612 540.18L415.635 523.214L398.66 517.218L400.001 513.432L416.966 519.455L422.962 502.48L426.748 503.82L420.725 520.786L437.682 526.791L436.351 530.55L419.394 524.545L413.389 541.502L409.612 540.18Z" fill="#FCFFFC"/>
<path d="M1838.5 214.954L1823.44 236.899L1801.5 221.811L1798.14 226.704L1820.09 241.757L1804.99 263.679L1809.89 267.041L1824.95 245.096L1846.88 260.154L1850.22 255.296L1828.3 240.237L1843.37 218.321L1838.5 214.954Z" fill="#FCFFFC"/>
<path fill-rule="evenodd" clip-rule="evenodd" d="M596.18 834.75C607.784 834.75 618.912 830.141 627.116 821.936C635.321 813.731 639.93 802.603 639.93 791C639.93 779.397 635.321 768.269 627.116 760.064C618.912 751.859 607.784 747.25 596.18 747.25C584.577 747.25 573.449 751.859 565.245 760.064C557.04 768.269 552.43 779.397 552.43 791C552.43 802.603 557.04 813.731 565.245 821.936C573.449 830.141 584.577 834.75 596.18 834.75ZM596.18 841C609.441 841 622.159 835.732 631.536 826.355C640.913 816.979 646.18 804.261 646.18 791C646.18 777.739 640.913 765.021 631.536 755.645C622.159 746.268 609.441 741 596.18 741C582.92 741 570.202 746.268 560.825 755.645C551.448 765.021 546.18 777.739 546.18 791C546.18 804.261 551.448 816.979 560.825 826.355C570.202 835.732 582.92 841 596.18 841Z" fill="#FCFFFC"/>
<path fill-rule="evenodd" clip-rule="evenodd" d="M408.68 155.438C430.146 155.438 450.733 146.91 465.912 131.731C481.091 116.553 489.618 95.966 489.618 74.5C489.618 53.034 481.091 32.4473 465.912 17.2685C450.733 2.08982 430.146 -6.4375 408.68 -6.4375C387.214 -6.4375 366.628 2.08982 351.449 17.2685C336.27 32.4473 327.743 53.034 327.743 74.5C327.743 95.966 336.27 116.553 351.449 131.731C366.628 146.91 387.214 155.437 408.68 155.438ZM408.68 167C433.213 167 456.741 157.254 474.088 139.907C491.435 122.56 501.18 99.0325 501.18 74.5C501.18 49.9675 491.435 26.4397 474.088 9.09262C456.741 -8.25449 433.213 -18 408.68 -18C384.148 -18 360.62 -8.25449 343.273 9.09262C325.926 26.4397 316.18 49.9675 316.18 74.5C316.18 99.0325 325.926 122.56 343.273 139.907C360.62 157.254 384.148 167 408.68 167Z" fill="#FCFFFC"/>
<path fill-rule="evenodd" clip-rule="evenodd" d="M1740.68 875.688C1765.4 875.688 1789.1 865.87 1806.57 848.393C1824.05 830.917 1833.87 807.215 1833.87 782.5C1833.87 757.785 1824.05 734.083 1806.57 716.607C1789.1 699.13 1765.4 689.312 1740.68 689.312C1715.97 689.312 1692.26 699.13 1674.79 716.607C1657.31 734.083 1647.49 757.785 1647.49 782.5C1647.49 807.215 1657.31 830.917 1674.79 848.393C1692.26 865.87 1715.97 875.688 1740.68 875.688ZM1740.68 889C1768.93 889 1796.01 877.78 1815.99 857.807C1835.96 837.834 1847.18 810.746 1847.18 782.5C1847.18 754.254 1835.96 727.166 1815.99 707.193C1796.01 687.22 1768.93 676 1740.68 676C1712.43 676 1685.35 687.22 1665.37 707.193C1645.4 727.166 1634.18 754.254 1634.18 782.5C1634.18 810.746 1645.4 837.834 1665.37 857.807C1685.35 877.78 1712.43 889 1740.68 889Z" fill="#FCFFFC"/>
<path fill-rule="evenodd" clip-rule="evenodd" d="M1547.18 448.5C1561.1 448.5 1574.46 442.969 1584.3 433.123C1594.15 423.277 1599.68 409.924 1599.68 396C1599.68 382.076 1594.15 368.723 1584.3 358.877C1574.46 349.031 1561.1 343.5 1547.18 343.5C1533.26 343.5 1519.9 349.031 1510.06 358.877C1500.21 368.723 1494.68 382.076 1494.68 396C1494.68 409.924 1500.21 423.277 1510.06 433.123C1519.9 442.969 1533.26 448.5 1547.18 448.5ZM1547.18 456C1563.09 456 1578.35 449.679 1589.61 438.426C1600.86 427.174 1607.18 411.913 1607.18 396C1607.18 380.087 1600.86 364.826 1589.61 353.574C1578.35 342.321 1563.09 336 1547.18 336C1531.27 336 1516.01 342.321 1504.75 353.574C1493.5 364.826 1487.18 380.087 1487.18 396C1487.18 411.913 1493.5 427.174 1504.75 438.426C1516.01 449.679 1531.27 456 1547.18 456Z" fill="#FCFFFC"/>
<path fill-rule="evenodd" clip-rule="evenodd" d="M1765.68 1094.44C1774.15 1094.44 1782.27 1091.07 1788.26 1085.08C1794.25 1079.09 1797.62 1070.97 1797.62 1062.5C1797.62 1054.03 1794.25 1045.91 1788.26 1039.92C1782.27 1033.93 1774.15 1030.56 1765.68 1030.56C1757.21 1030.56 1749.09 1033.93 1743.1 1039.92C1737.11 1045.91 1733.74 1054.03 1733.74 1062.5C1733.74 1070.97 1737.11 1079.09 1743.1 1085.08C1749.09 1091.07 1757.21 1094.44 1765.68 1094.44ZM1765.68 1099C1775.36 1099 1784.64 1095.15 1791.49 1088.31C1798.33 1081.46 1802.18 1072.18 1802.18 1062.5C1802.18 1052.82 1798.33 1043.54 1791.49 1036.69C1784.64 1029.85 1775.36 1026 1765.68 1026C1756 1026 1746.72 1029.85 1739.87 1036.69C1733.03 1043.54 1729.18 1052.82 1729.18 1062.5C1729.18 1072.18 1733.03 1081.46 1739.87 1088.31C1746.72 1095.15 1756 1099 1765.68 1099Z" fill="#FCFFFC"/>
<path fill-rule="evenodd" clip-rule="evenodd" d="M178.68 324.188C185.758 324.188 192.546 321.376 197.551 316.371C202.556 311.366 205.368 304.578 205.368 297.5C205.368 290.422 202.556 283.634 197.551 278.629C192.546 273.624 185.758 270.812 178.68 270.812C171.602 270.812 164.814 273.624 159.81 278.629C154.805 283.634 151.993 290.422 151.993 297.5C151.993 304.578 154.805 311.366 159.81 316.371C164.814 321.376 171.602 324.188 178.68 324.188ZM178.68 328C186.77 328 194.527 324.787 200.247 319.067C205.967 313.347 209.18 305.589 209.18 297.5C209.18 289.411 205.967 281.653 200.247 275.933C194.527 270.213 186.77 267 178.68 267C170.591 267 162.834 270.213 157.114 275.933C151.394 281.653 148.18 289.411 148.18 297.5C148.18 305.589 151.394 313.347 157.114 319.067C162.834 324.787 170.591 328 178.68 328Z" fill="#FCFFFC"/>
</g>
</g>
<defs>
<clipPath id="clip0">
<rect width="1920" height="1080" fill="white"/>
</clipPath>
</defs>
</svg>
