<svg width="597" height="111" viewBox="0 0 597 111" fill="none" xmlns="http://www.w3.org/2000/svg">
<g clip-path="url(#clip0)">
<path d="M78.2927 65.5777H78.2962C85.6732 65.5777 91.6506 71.5325 91.6506 78.856C91.6506 86.1848 85.6735 92.1344 78.2962 92.1344V93.1341L78.2924 92.1344C76.5484 92.1411 74.8202 91.803 73.2063 91.1394C71.5923 90.4758 70.1242 89.4997 68.8859 88.2665C67.6475 87.0333 66.6632 85.5672 65.9892 83.9518C65.3157 82.3377 64.9654 80.6063 64.9582 78.8562C64.974 75.3207 66.3876 71.9367 68.8875 69.4472C71.3882 66.9569 74.7712 65.5655 78.2927 65.5777ZM78.0725 58.7617C72.787 58.7624 67.719 60.8701 63.9832 64.62C60.2475 68.3697 58.1499 73.4543 58.1507 78.7549C58.1514 84.0556 60.2505 89.1395 63.9873 92.8882C67.7241 96.6369 72.7927 98.7432 78.0782 98.7424C83.3637 98.7417 88.4317 96.6339 92.1674 92.8841C95.9031 89.1344 98.0008 84.0498 98 78.7492C97.9992 73.4485 95.9001 68.3645 92.1634 64.6159C88.4265 60.8671 83.3579 58.7609 78.0725 58.7617Z" fill="#131D40" stroke="#131D40" stroke-width="2"/>
<path d="M18.6731 19.9392C21.0521 17.4846 24.2896 16.0573 27.6985 15.9585C31.1698 15.9636 34.4986 17.3488 36.9555 19.8123C39.4156 22.2791 40.8003 25.6254 40.8046 29.1168C40.8016 32.6095 39.4176 35.9576 36.9574 38.4263C34.5005 40.8917 31.171 42.2788 27.6983 42.2853C24.2895 42.1865 21.0521 40.7592 18.6731 38.3047C16.2907 35.8466 14.9572 32.5522 14.9572 29.1219C14.9572 25.6916 16.2907 22.3972 18.6731 19.9392ZM27.6844 9.36139C22.4611 9.36292 17.4531 11.4466 13.7618 15.1528C10.0707 18.859 7.99848 23.884 8 29.1222C8.00152 34.3605 10.0766 39.3843 13.77 43.0882C17.4634 46.7923 22.4726 48.873 27.6959 48.8715C32.9192 48.87 37.9272 46.7863 41.6185 43.0801C45.3096 39.3739 47.3818 34.3489 47.3803 29.1107C47.3788 23.8724 45.3037 18.8486 41.6104 15.1447C37.9169 11.4406 32.9077 9.35986 27.6844 9.36139Z" fill="#131D40" stroke="#131D40" stroke-width="2"/>
<path d="M96.7236 15.7025L97.4267 14.997L96.724 14.2911L91.7501 9.29451L91.0418 8.58294L90.3331 9.29412L76.9871 22.6864L63.6465 9.29426L62.9374 8.58241L62.2289 9.2949L57.2605 14.2915L56.5586 14.9974L57.2613 15.7025L70.6065 29.0941L57.2615 42.475L56.5579 43.1805L57.2609 43.8867L62.2293 48.8778L62.9375 49.5892L63.6462 48.8783L76.9871 35.4963L90.3334 48.8785L91.0417 49.5887L91.7497 48.8782L96.7236 43.8871L97.4273 43.1809L96.7233 42.475L83.3783 29.0941L96.7236 15.7025Z" fill="#131D40" stroke="#131D40" stroke-width="2"/>
<path d="M48.2697 65.4641L48.9728 64.7586L48.2701 64.0528L43.2962 59.0562L42.5879 58.3446L41.8792 59.0558L28.5332 72.4481L15.1926 59.0559L14.4835 58.3441L13.775 59.0566L8.80661 64.0532L8.10472 64.759L8.80739 65.4641L22.1526 78.8557L8.80766 92.2367L8.10406 92.9422L8.807 93.6483L13.7754 98.6395L14.4836 99.3509L15.1923 98.64L28.5332 85.2579L41.8795 98.6401L42.5878 99.3504L43.2959 98.6398L48.2697 93.6487L48.9734 92.9426L48.2694 92.2367L34.9245 78.8557L48.2697 65.4641Z" fill="#131D40" stroke="#131D40" stroke-width="2"/>
<path d="M175.141 8.17578L174.652 28.8789L160.102 29.4648L156.391 75.7539L135.785 76.8281L135.883 30.5391L121.332 31.3203L121.918 8.27344L175.141 8.17578ZM203.314 9.25L199.896 75.7539L179.291 76.8281L177.338 10.6172L203.314 9.25ZM253.9 11.3008L252.143 31.9062C251.199 31.6458 250.271 31.4668 249.359 31.3691C248.448 31.2715 247.52 31.2227 246.576 31.2227C244.265 31.2227 242.051 31.5156 239.936 32.1016C237.852 32.6875 235.997 33.5827 234.369 34.7871C232.774 35.9915 231.488 37.5215 230.512 39.377C229.568 41.1999 229.096 43.3646 229.096 45.8711C229.096 47.694 229.356 49.2891 229.877 50.6562C230.43 51.9909 231.195 53.1139 232.172 54.0254C233.181 54.9043 234.385 55.5716 235.785 56.0273C237.217 56.4831 238.796 56.7109 240.521 56.7109C241.726 56.7109 242.963 56.597 244.232 56.3691C245.502 56.1087 246.771 55.7669 248.041 55.3438C249.311 54.9206 250.531 54.4323 251.703 53.8789C252.875 53.3255 253.965 52.7396 254.975 52.1211L254.193 75.0703C252.924 75.7214 251.557 76.3073 250.092 76.8281C248.627 77.3164 247.113 77.7396 245.551 78.0977C244.021 78.4883 242.475 78.7812 240.912 78.9766C239.382 79.1719 237.917 79.2695 236.518 79.2695C231.895 79.2695 227.68 78.4069 223.871 76.6816C220.095 74.9564 216.84 72.6126 214.105 69.6504C211.404 66.6556 209.304 63.1888 207.807 59.25C206.309 55.3112 205.561 51.112 205.561 46.6523C205.561 41.3138 206.309 36.3333 207.807 31.7109C209.337 27.0885 211.566 23.0846 214.496 19.6992C217.458 16.2812 221.104 13.612 225.434 11.6914C229.796 9.73828 234.792 8.76172 240.424 8.76172C242.67 8.76172 244.949 8.94076 247.26 9.29883C249.571 9.6569 251.785 10.3242 253.9 11.3008ZM310.199 8.17578L309.711 28.8789L295.16 29.4648L291.449 75.7539L270.844 76.8281L270.941 30.5391L256.391 31.3203L256.977 8.27344L310.199 8.17578ZM367.719 73.8008L343.5 76.9258L340.57 65.8906H329.438L326.996 76.9258L302.094 74.4844L321.527 9.44531L348.676 8.07812L367.719 73.8008ZM338.812 50.9492L335.102 33.957L331.488 50.9492H338.812ZM414.057 11.3008L412.299 31.9062C411.355 31.6458 410.427 31.4668 409.516 31.3691C408.604 31.2715 407.676 31.2227 406.732 31.2227C404.421 31.2227 402.208 31.5156 400.092 32.1016C398.008 32.6875 396.153 33.5827 394.525 34.7871C392.93 35.9915 391.645 37.5215 390.668 39.377C389.724 41.1999 389.252 43.3646 389.252 45.8711C389.252 47.694 389.512 49.2891 390.033 50.6562C390.587 51.9909 391.352 53.1139 392.328 54.0254C393.337 54.9043 394.542 55.5716 395.941 56.0273C397.374 56.4831 398.952 56.7109 400.678 56.7109C401.882 56.7109 403.119 56.597 404.389 56.3691C405.658 56.1087 406.928 55.7669 408.197 55.3438C409.467 54.9206 410.688 54.4323 411.859 53.8789C413.031 53.3255 414.122 52.7396 415.131 52.1211L414.35 75.0703C413.08 75.7214 411.713 76.3073 410.248 76.8281C408.783 77.3164 407.27 77.7396 405.707 78.0977C404.177 78.4883 402.631 78.7812 401.068 78.9766C399.538 79.1719 398.074 79.2695 396.674 79.2695C392.051 79.2695 387.836 78.4069 384.027 76.6816C380.251 74.9564 376.996 72.6126 374.262 69.6504C371.56 66.6556 369.46 63.1888 367.963 59.25C366.465 55.3112 365.717 51.112 365.717 46.6523C365.717 41.3138 366.465 36.3333 367.963 31.7109C369.493 27.0885 371.723 23.0846 374.652 19.6992C377.615 16.2812 381.26 13.612 385.59 11.6914C389.952 9.73828 394.949 8.76172 400.58 8.76172C402.826 8.76172 405.105 8.94076 407.416 9.29883C409.727 9.6569 411.941 10.3242 414.057 11.3008ZM470.355 8.17578L469.867 28.8789L455.316 29.4648L451.605 75.7539L431 76.8281L431.098 30.5391L416.547 31.3203L417.133 8.27344L470.355 8.17578ZM532.318 40.5977C532.318 43.5599 531.977 46.4245 531.293 49.1914C530.609 51.9258 529.617 54.4974 528.314 56.9062C527.045 59.3151 525.482 61.5286 523.627 63.5469C521.804 65.5326 519.737 67.2415 517.426 68.6738C515.147 70.1061 512.657 71.2292 509.955 72.043C507.253 72.8242 504.389 73.2148 501.361 73.2148C498.432 73.2148 495.632 72.8405 492.963 72.0918C490.326 71.3431 487.852 70.3014 485.541 68.9668C483.23 67.5996 481.13 65.972 479.242 64.084C477.387 62.1634 475.792 60.0475 474.457 57.7363C473.155 55.3926 472.13 52.8861 471.381 50.2168C470.665 47.5475 470.307 44.7643 470.307 41.8672C470.307 39.0352 470.648 36.2682 471.332 33.5664C472.016 30.832 472.992 28.2604 474.262 25.8516C475.564 23.4427 477.126 21.2292 478.949 19.2109C480.772 17.1927 482.807 15.4512 485.053 13.9863C487.331 12.5215 489.789 11.3822 492.426 10.5684C495.062 9.75456 497.846 9.34766 500.775 9.34766C505.495 9.34766 509.792 10.0801 513.666 11.5449C517.572 13.0098 520.893 15.1094 523.627 17.8438C526.394 20.5456 528.526 23.8333 530.023 27.707C531.553 31.5482 532.318 35.8451 532.318 40.5977ZM510.639 41.8672C510.639 40.4674 510.427 39.1165 510.004 37.8145C509.613 36.4798 509.027 35.3079 508.246 34.2988C507.465 33.2572 506.488 32.4271 505.316 31.8086C504.177 31.1576 502.859 30.832 501.361 30.832C499.831 30.832 498.464 31.1087 497.26 31.6621C496.055 32.2155 495.014 32.9805 494.135 33.957C493.288 34.901 492.637 36.0241 492.182 37.3262C491.726 38.5957 491.498 39.9466 491.498 41.3789C491.498 42.7461 491.693 44.1133 492.084 45.4805C492.475 46.8477 493.061 48.0846 493.842 49.1914C494.623 50.2982 495.583 51.1934 496.723 51.877C497.895 52.5605 499.245 52.9023 500.775 52.9023C502.305 52.9023 503.673 52.6094 504.877 52.0234C506.114 51.4049 507.156 50.5911 508.002 49.582C508.848 48.5404 509.499 47.3522 509.955 46.0176C510.411 44.6829 510.639 43.2995 510.639 41.8672ZM590.229 38.5469C590.229 41.3789 590.033 44.2109 589.643 47.043C584.076 47.401 578.542 47.987 573.041 48.8008C567.54 49.582 562.038 50.3633 556.537 51.1445C557.383 53.4883 558.702 55.36 560.492 56.7598C562.315 58.1595 564.48 58.8594 566.986 58.8594C568.288 58.8594 569.704 58.6152 571.234 58.127C572.797 57.6387 574.343 57.0365 575.873 56.3203C577.403 55.5716 578.868 54.7741 580.268 53.9277C581.667 53.0814 582.872 52.3164 583.881 51.6328L581.537 73.8008C580.268 74.7773 578.884 75.6074 577.387 76.291C575.922 76.9746 574.392 77.528 572.797 77.9512C571.202 78.3743 569.59 78.6836 567.963 78.8789C566.335 79.0742 564.74 79.1719 563.178 79.1719C559.955 79.1719 557.009 78.7324 554.34 77.8535C551.671 76.9746 549.245 75.7539 547.064 74.1914C544.916 72.5964 543.028 70.7246 541.4 68.5762C539.773 66.4277 538.422 64.084 537.348 61.5449C536.273 59.0059 535.46 56.3203 534.906 53.4883C534.353 50.6562 534.076 47.7917 534.076 44.8945C534.076 41.8672 534.353 38.8398 534.906 35.8125C535.46 32.7852 536.29 29.8717 537.396 27.0723C538.536 24.2728 539.952 21.6849 541.645 19.3086C543.37 16.8997 545.372 14.8001 547.65 13.0098C549.929 11.2194 552.501 9.81966 555.365 8.81055C558.262 7.80143 561.452 7.29688 564.936 7.29688C567.833 7.29688 570.469 7.70378 572.846 8.51758C575.255 9.29883 577.387 10.4056 579.242 11.8379C581.13 13.2376 582.758 14.9141 584.125 16.8672C585.525 18.8203 586.664 20.9688 587.543 23.3125C588.454 25.6237 589.122 28.0814 589.545 30.6855C590.001 33.2572 590.229 35.8776 590.229 38.5469ZM570.697 36.0078C570.697 35.0964 570.6 34.1686 570.404 33.2246C570.209 32.248 569.883 31.3691 569.428 30.5879C569.005 29.8066 568.435 29.1719 567.719 28.6836C567.003 28.1628 566.107 27.9023 565.033 27.9023C563.731 27.9023 562.576 28.2604 561.566 28.9766C560.59 29.6602 559.743 30.5391 559.027 31.6133C558.311 32.6549 557.725 33.7943 557.27 35.0312C556.814 36.2682 556.472 37.4076 556.244 38.4492L570.697 37.082V36.0078Z" fill="#131D40"/>
<path d="M151.188 97.94C150.922 98.0867 150.635 98.16 150.328 98.16C150.088 98.16 149.895 98.1133 149.748 98.02C149.615 97.94 149.475 97.7867 149.328 97.56L146.288 92.64C145.982 92.1467 145.655 91.82 145.308 91.66C144.975 91.4867 144.442 91.4 143.708 91.4H142.928V98H141.488V84H142.928V90.16H144.108C144.348 90.16 144.528 90.1667 144.648 90.18L149.368 84H151.028L145.928 90.58C146.488 90.8867 147.022 91.4333 147.528 92.22L151.188 97.94ZM181.795 96.8C181.795 97.28 181.722 97.6 181.575 97.76C181.442 97.92 181.169 98 180.755 98H173.415V84H181.775V85.2H174.855V90.24H180.815V91.44H174.855V96.8H181.795ZM212.987 96.8C212.987 97.28 212.913 97.6 212.767 97.76C212.633 97.92 212.36 98 211.947 98H204.607V84H212.967V85.2H206.047V90.24H212.007V91.44H206.047V96.8H212.987ZM239.958 84C241.785 84 243.165 84.38 244.098 85.14C245.045 85.8867 245.518 86.9933 245.518 88.46C245.518 89.9533 245.045 91.08 244.098 91.84C243.165 92.6 241.785 92.98 239.958 92.98H237.238V98H235.798V84H239.958ZM239.958 91.74C241.385 91.74 242.425 91.48 243.078 90.96C243.745 90.4267 244.078 89.5933 244.078 88.46C244.078 87.34 243.745 86.5267 243.078 86.02C242.425 85.5 241.385 85.24 239.958 85.24H237.238V91.74H239.958ZM294.319 84H295.759V98H294.319V84ZM328.911 84C328.965 84.24 328.991 84.4 328.991 84.48C328.991 84.7067 328.931 84.8867 328.811 85.02C328.691 85.14 328.511 85.2 328.271 85.2H324.591V98H323.151V85.2H318.831V84H328.911ZM381.411 98.2C379.504 98.2 378.024 97.5733 376.971 96.32C375.931 95.0667 375.411 93.2933 375.411 91C375.411 88.6933 375.931 86.92 376.971 85.68C378.011 84.4267 379.491 83.8 381.411 83.8C382.184 83.8 382.904 83.9333 383.571 84.2C384.238 84.4533 384.811 84.8333 385.291 85.34C385.211 85.5933 385.098 85.7867 384.951 85.92C384.804 86.0533 384.638 86.12 384.451 86.12C384.264 86.12 384.091 86.06 383.931 85.94C383.211 85.38 382.358 85.1 381.371 85.1C379.904 85.1 378.791 85.6 378.031 86.6C377.271 87.6 376.891 89.0667 376.891 91C376.891 92.92 377.271 94.38 378.031 95.38C378.791 96.38 379.904 96.88 381.371 96.88C381.998 96.88 382.558 96.7933 383.051 96.62C383.558 96.4467 384.058 96.16 384.551 95.76C384.724 95.7733 384.871 95.8467 384.991 95.98C385.111 96.1 385.171 96.2533 385.171 96.44C385.171 96.7467 384.991 97.0333 384.631 97.3C384.284 97.5667 383.818 97.7867 383.231 97.96C382.658 98.12 382.051 98.2 381.411 98.2ZM416.245 96.8V98H408.005V84H409.445V96.8H416.245ZM447.159 98C446.799 96.3467 446.459 94.9933 446.139 93.94H439.339C439.019 94.9933 438.679 96.3467 438.319 98H436.839C437.532 95.1467 438.286 92.6133 439.099 90.4C439.912 88.1733 440.879 86.04 441.999 84H443.499C444.606 86.0267 445.566 88.1533 446.379 90.38C447.192 92.5933 447.946 95.1333 448.639 98H447.159ZM445.799 92.74C444.986 90.1533 443.966 87.7267 442.739 85.46C441.512 87.7267 440.492 90.1533 439.679 92.74H445.799ZM475.381 98.2C474.461 98.2 473.615 98.06 472.841 97.78C472.068 97.4867 471.455 97.0933 471.001 96.6C470.548 96.1067 470.321 95.5667 470.321 94.98C470.321 94.7133 470.415 94.5 470.601 94.34C470.801 94.1667 471.061 94.0733 471.381 94.06C471.595 95.0067 472.048 95.7267 472.741 96.22C473.435 96.7133 474.328 96.96 475.421 96.96C476.541 96.96 477.441 96.7 478.121 96.18C478.815 95.66 479.161 94.98 479.161 94.14C479.161 93.6467 479.035 93.2267 478.781 92.88C478.541 92.5333 478.141 92.2267 477.581 91.96C477.021 91.68 476.248 91.4133 475.261 91.16C474.115 90.8533 473.215 90.5333 472.561 90.2C471.908 89.8533 471.435 89.4667 471.141 89.04C470.861 88.6 470.721 88.06 470.721 87.42C470.721 86.3 471.135 85.42 471.961 84.78C472.788 84.1267 473.928 83.8 475.381 83.8C476.648 83.8 477.701 84.1 478.541 84.7C479.395 85.2867 479.968 86.12 480.261 87.2C480.088 87.3733 479.821 87.46 479.461 87.46C479.088 87.46 478.815 87.28 478.641 86.92C478.348 86.3333 477.901 85.8667 477.301 85.52C476.715 85.1733 476.075 85 475.381 85C474.328 85 473.528 85.2067 472.981 85.62C472.435 86.0333 472.161 86.6333 472.161 87.42C472.161 87.82 472.261 88.16 472.461 88.44C472.661 88.7067 472.995 88.9533 473.461 89.18C473.928 89.4067 474.588 89.64 475.441 89.88C476.868 90.28 477.941 90.66 478.661 91.02C479.395 91.38 479.908 91.7867 480.201 92.24C480.495 92.6933 480.641 93.2867 480.641 94.02C480.641 94.86 480.428 95.6 480.001 96.24C479.575 96.8667 478.961 97.3533 478.161 97.7C477.375 98.0333 476.448 98.2 475.381 98.2ZM508.213 98.2C507.293 98.2 506.447 98.06 505.673 97.78C504.9 97.4867 504.287 97.0933 503.833 96.6C503.38 96.1067 503.153 95.5667 503.153 94.98C503.153 94.7133 503.247 94.5 503.433 94.34C503.633 94.1667 503.893 94.0733 504.213 94.06C504.427 95.0067 504.88 95.7267 505.573 96.22C506.267 96.7133 507.16 96.96 508.253 96.96C509.373 96.96 510.273 96.7 510.953 96.18C511.647 95.66 511.993 94.98 511.993 94.14C511.993 93.6467 511.867 93.2267 511.613 92.88C511.373 92.5333 510.973 92.2267 510.413 91.96C509.853 91.68 509.08 91.4133 508.093 91.16C506.947 90.8533 506.047 90.5333 505.393 90.2C504.74 89.8533 504.267 89.4667 503.973 89.04C503.693 88.6 503.553 88.06 503.553 87.42C503.553 86.3 503.967 85.42 504.793 84.78C505.62 84.1267 506.76 83.8 508.213 83.8C509.48 83.8 510.533 84.1 511.373 84.7C512.227 85.2867 512.8 86.12 513.093 87.2C512.92 87.3733 512.653 87.46 512.293 87.46C511.92 87.46 511.647 87.28 511.473 86.92C511.18 86.3333 510.733 85.8667 510.133 85.52C509.547 85.1733 508.907 85 508.213 85C507.16 85 506.36 85.2067 505.813 85.62C505.267 86.0333 504.993 86.6333 504.993 87.42C504.993 87.82 505.093 88.16 505.293 88.44C505.493 88.7067 505.827 88.9533 506.293 89.18C506.76 89.4067 507.42 89.64 508.273 89.88C509.7 90.28 510.773 90.66 511.493 91.02C512.227 91.38 512.74 91.7867 513.033 92.24C513.327 92.6933 513.473 93.2867 513.473 94.02C513.473 94.86 513.26 95.6 512.833 96.24C512.407 96.8667 511.793 97.3533 510.993 97.7C510.207 98.0333 509.28 98.2 508.213 98.2ZM537.385 84H538.825V98H537.385V84ZM568.638 98.2C566.731 98.2 565.251 97.5733 564.198 96.32C563.158 95.0667 562.638 93.2933 562.638 91C562.638 88.6933 563.158 86.92 564.198 85.68C565.238 84.4267 566.718 83.8 568.638 83.8C569.411 83.8 570.131 83.9333 570.798 84.2C571.464 84.4533 572.038 84.8333 572.518 85.34C572.438 85.5933 572.324 85.7867 572.178 85.92C572.031 86.0533 571.864 86.12 571.678 86.12C571.491 86.12 571.318 86.06 571.158 85.94C570.438 85.38 569.584 85.1 568.598 85.1C567.131 85.1 566.018 85.6 565.258 86.6C564.498 87.6 564.118 89.0667 564.118 91C564.118 92.92 564.498 94.38 565.258 95.38C566.018 96.38 567.131 96.88 568.598 96.88C569.224 96.88 569.784 96.7933 570.278 96.62C570.784 96.4467 571.284 96.16 571.778 95.76C571.951 95.7733 572.098 95.8467 572.218 95.98C572.338 96.1 572.398 96.2533 572.398 96.44C572.398 96.7467 572.218 97.0333 571.858 97.3C571.511 97.5667 571.044 97.7867 570.458 97.96C569.884 98.12 569.278 98.2 568.638 98.2Z" fill="#131D40"/>
</g>
<defs>
<clipPath id="clip0">
<rect width="597" height="111" fill="white"/>
</clipPath>
</defs>
</svg>
